<svg xmlns="http://www.w3.org/2000/svg" viewBox="0 0 120 132"><rect width="120" height="132" fill="#29354f"/><circle cx="60" cy="62" r="53" fill="#657e90" opacity=".65"/><path d="M8 132 Q13 103 40 98 L52 95 60 106 68 95 80 98 Q107 103 112 132Z" fill="#7d253d"/><path d="M48 99 L60 109 72 99" fill="none" stroke="#d55159" stroke-width="5"/><circle cx="60" cy="66" r="37" fill="#14243b"/><circle cx="60" cy="64" r="34" fill="#385166"/><path d="M26 45 Q30 15 58 15 Q86 15 94 45 L83 39 73 32 58 33 40 39Z" fill="#19172c"/><path d="M28 49 L23 110 35 110 41 43 M80 43 L87 110 99 110 94 49Z" fill="#19172c"/><circle cx="48" cy="69" r="7" fill="#17263b"/><circle cx="73" cy="69" r="7" fill="#17263b"/><circle cx="48" cy="69" r="4.5" fill="#a9dfff"/><circle cx="73" cy="69" r="4.5" fill="#a9dfff"/><circle cx="46" cy="67" r="1.7" fill="#fff"/><circle cx="71" cy="67" r="1.7" fill="#fff"/></svg>
